{
  "accessors": [
    {
      "bufferView": 2,
      "componentType": 5126,
      "count": 559,
      "max": [
        1.7634735107421875,
        0.36867403984069824,
        1.7634727954864502
      ],
      "min": [
        -1.7634735107421875,
        -0.36867398023605347,
        -1.7634730339050293
      ],
      "type": "VEC3"
    },
    {
      "bufferView": 2,
      "byteOffset": 6708,
      "componentType": 5126,
      "count": 559,
      "max": [
        1.0,
        1.0,
        1.0
      ],
      "min": [
        -1.0,
        -1.0,
        -1.0
      ],
      "type": "VEC3"
    },
    {
      "bufferView": 1,
      "componentType": 5126,
      "count": 559,
      "max": [
        1.0,
        1.0
      ],
      "min": [
        0.0,
        0.0
      ],
      "type": "VEC2"
    },
    {
      "bufferView": 0,
      "componentType": 5125,
      "count": 2880,
      "type": "SCALAR"
    },
    {
      "bufferView": 2,
      "byteOffset": 13416,
      "componentType": 5126,
      "count": 96,
      "max": [
        2.798326015472412,
        0.10000008344650269,
        2.7983264923095703
      ],
      "min": [
        -2.798326015472412,
        -0.10000008344650269,
        -2.798325300216675
      ],
      "type": "VEC3"
    },
    {
      "bufferView": 2,
      "byteOffset": 14568,
      "componentType": 5126,
      "count": 96,
      "max": [
        0.13987129926681519,
        0.9890396595001221,
        0.13987132906913757
      ],
      "min": [
        -0.13987129926681519,
        -0.9890396595001221,
        -0.139871284365654
      ],
      "type": "VEC3"
    },
    {
      "bufferView": 1,
      "byteOffset": 4472,
      "componentType": 5126,
      "count": 96,
      "max": [
        1.0,
        1.0
      ],
      "min": [
        0.0,
        0.0
      ],
      "type": "VEC2"
    },
    {
      "bufferView": 0,
      "byteOffset": 11520,
      "componentType": 5125,
      "count": 96,
      "type": "SCALAR"
    },
    {
      "bufferView": 2,
      "byteOffset": 15720,
      "componentType": 5126,
      "count": 85,
      "max": [
        0.4954332113265991,
        4.240241050720215,
        -0.2469712495803833
      ],
      "min": [
        0.2061411589384079,
        3.9642491340637207,
        -0.4249163866043091
      ],
      "type": "VEC3"
    },
    {
      "bufferView": 2,
      "byteOffset": 16740,
      "componentType": 5126,
      "count": 85,
      "max": [
        0.9999340176582336,
        1.0,
        -0.0
      ],
      "min": [
        -1.0,
        -0.9970501065254211,
        -0.9995732307434082
      ],
      "type": "VEC3"
    },
    {
      "bufferView": 1,
      "byteOffset": 5240,
      "componentType": 5126,
      "count": 85,
      "max": [
        0.8125,
        0.5
      ],
      "min": [
        0.1875,
        0.0
      ],
      "type": "VEC2"
    },
    {
      "bufferView": 0,
      "byteOffset": 11904,
      "componentType": 5125,
      "count": 105,
      "type": "SCALAR"
    },
    {
      "bufferView": 2,
      "byteOffset": 17760,
      "componentType": 5126,
      "count": 85,
      "max": [
        -0.2061411589384079,
        4.240241050720215,
        -0.2469712495803833
      ],
      "min": [
        -0.4954332113265991,
        3.9642491340637207,
        -0.4249163866043091
      ],
      "type": "VEC3"
    },
    {
      "bufferView": 2,
      "byteOffset": 18780,
      "componentType": 5126,
      "count": 85,
      "max": [
        1.0,
        1.0,
        -0.0
      ],
      "min": [
        -0.9999340176582336,
        -0.9970501065254211,
        -0.9995732307434082
      ],
      "type": "VEC3"
    },
    {
      "bufferView": 1,
      "byteOffset": 5920,
      "componentType": 5126,
      "count": 85,
      "max": [
        0.8125,
        0.5
      ],
      "min": [
        0.1875,
        0.0
      ],
      "type": "VEC2"
    },
    {
      "bufferView": 0,
      "byteOffset": 12324,
      "componentType": 5125,
      "count": 105,
      "type": "SCALAR"
    },
    {
      "bufferView": 2,
      "byteOffset": 19800,
      "componentType": 5126,
      "count": 153,
      "max": [
        1.0,
        1.0,
        1.0
      ],
      "min": [
        -1.0,
        -1.0,
        -9.655991561885457e-07
      ],
      "type": "VEC3"
    },
    {
      "bufferView": 2,
      "byteOffset": 21636,
      "componentType": 5126,
      "count": 153,
      "max": [
        0.9951848387718201,
        0.0,
        0.9586472511291504
      ],
      "min": [
        -0.9951848983764648,
        -1.0,
        -0.9957120418548584
      ],
      "type": "VEC3"
    },
    {
      "bufferView": 1,
      "byteOffset": 6600,
      "componentType": 5126,
      "count": 153,
      "max": [
        0.75,
        0.5
      ],
      "min": [
        0.25,
        0.0
      ],
      "type": "VEC2"
    },
    {
      "bufferView": 0,
      "byteOffset": 12744,
      "componentType": 5125,
      "count": 264,
      "type": "SCALAR"
    }
  ],
  "asset": {
    "extras": {
      "author": "psylem (https://sketchfab.com/psylem)",
      "license": "CC-BY-SA-4.0 (http://creativecommons.org/licenses/by-sa/4.0/)",
      "source": "https://sketchfab.com/3d-models/sun-fa30ac698f9d4d4f8480f27e41a4f4a1",
      "title": "Sun"
    },
    "generator": "Sketchfab-12.66.0",
    "version": "2.0"
  },
  "bufferViews": [
    {
      "buffer": 0,
      "byteLength": 13800,
      "name": "floatBufferViews",
      "target": 34963
    },
    {
      "buffer": 0,
      "byteLength": 7824,
      "byteOffset": 13800,
      "byteStride": 8,
      "name": "floatBufferViews",
      "target": 34962
    },
    {
      "buffer": 0,
      "byteLength": 23472,
      "byteOffset": 21624,
      "byteStride": 12,
      "name": "floatBufferViews",
      "target": 34962
    }
  ],
  "buffers": [
    {
      "byteLength": 45096,
      "uri": "scene.bin"
    }
  ],
  "materials": [
    {
      "doubleSided": true,
      "name": "Face",
      "pbrMetallicRoughness": {
        "baseColorFactor": [
          1.0,
          1.0,
          0.212227,
          1.0
        ],
        "metallicFactor": 0.0,
        "roughnessFactor": 0.0
      }
    },
    {
      "doubleSided": true,
      "name": "Rays",
      "pbrMetallicRoughness": {
        "baseColorFactor": [
          1.0,
          1.0,
          0.212231,
          1.0
        ],
        "metallicFactor": 0.0,
        "roughnessFactor": 0.0
      }
    },
    {
      "doubleSided": true,
      "name": "Flat_Black",
      "pbrMetallicRoughness": {
        "baseColorFactor": [
          0.0,
          0.0,
          0.0,
          1.0
        ],
        "metallicFactor": 0.0,
        "roughnessFactor": 0.0
      }
    }
  ],
  "meshes": [
    {
      "name": "Object_0",
      "primitives": [
        {
          "attributes": {
            "NORMAL": 1,
            "POSITION": 0,
            "TEXCOORD_0": 2
          },
          "indices": 3,
          "material": 0,
          "mode": 4
        }
      ]
    },
    {
      "name": "Object_1",
      "primitives": [
        {
          "attributes": {
            "NORMAL": 5,
            "POSITION": 4,
            "TEXCOORD_0": 6
          },
          "indices": 7,
          "material": 1,
          "mode": 4
        }
      ]
    },
    {
      "name": "Object_2",
      "primitives": [
        {
          "attributes": {
            "NORMAL": 9,
            "POSITION": 8,
            "TEXCOORD_0": 10
          },
          "indices": 11,
          "material": 2,
          "mode": 4
        }
      ]
    },
    {
      "name": "Object_3",
      "primitives": [
        {
          "attributes": {
            "NORMAL": 13,
            "POSITION": 12,
            "TEXCOORD_0": 14
          },
          "indices": 15,
          "material": 2,
          "mode": 4
        }
      ]
    },
    {
      "name": "Object_4",
      "primitives": [
        {
          "attributes": {
            "NORMAL": 17,
            "POSITION": 16,
            "TEXCOORD_0": 18
          },
          "indices": 19,
          "material": 2,
          "mode": 4
        }
      ]
    }
  ],
  "nodes": [
    {
      "children": [
        1
      ],
      "matrix": [
        1.0,
        0.0,
        0.0,
        0.0,
        0.0,
        2.220446049250313e-16,
        -1.0,
        0.0,
        0.0,
        1.0,
        2.220446049250313e-16,
        0.0,
        0.0,
        0.0,
        0.0,
        1.0
      ],
      "name": "Sketchfab_model"
    },
    {
      "children": [
        2
      ],
      "name": "root"
    },
    {
      "children": [
        3,
        5,
        7,
        9,
        11
      ],
      "matrix": [
        1.0,
        0.0,
        0.0,
        0.0,
        0.0,
        2.220446049250313e-16,
        1.0,
        0.0,
        0.0,
        -1.0,
        2.220446049250313e-16,
        0.0,
        0.0,
        0.0,
        0.0,
        1.0
      ],
      "name": "GLTF_SceneRootNode"
    },
    {
      "children": [
        4
      ],
      "matrix": [
        -0.9999999999999734,
        1.6292067808180787e-07,
        1.6292065061543718e-07,
        0.0,
        -1.6292067808180787e-07,
        -1.685873836088092e-07,
        -0.9999999999999725,
        0.0,
        -1.6292065061543718e-07,
        -0.9999999999999725,
        1.685874103651841e-07,
        0.0,
        0.0,
        3.2197208404541016,
        0.0,
        1.0
      ],
      "name": "Sphere_0"
    },
    {
      "mesh": 0,
      "name": "Object_4"
    },
    {
      "children": [
        6
      ],
      "matrix": [
        -0.9999999999999734,
        1.6292067808180787e-07,
        1.6292065061543718e-07,
        0.0,
        -1.6292067808180787e-07,
        -1.685873836088092e-07,
        -0.9999999999999725,
        0.0,
        -1.6292065061543718e-07,
        -0.9999999999999725,
        1.685874103651841e-07,
        0.0,
        0.0,
        3.219721555709839,
        0.0,
        1.0
      ],
      "name": "Rays_1"
    },
    {
      "mesh": 1,
      "name": "Object_6"
    },
    {
      "children": [
        8
      ],
      "matrix": [
        -0.9999999999999467,
        0.0,
        3.258413698858844e-07,
        0.0,
        0.0,
        1.0,
        0.0,
        0.0,
        -3.258413698858844e-07,
        0.0,
        -0.9999999999999467,
        0.0,
        0.0,
        0.0,
        -0.08189734071493149,
        1.0
      ],
      "name": "Left Eye_2"
    },
    {
      "mesh": 2,
      "name": "Object_8"
    },
    {
      "children": [
        10
      ],
      "matrix": [
        -0.9999999999999467,
        0.0,
        3.258413698858844e-07,
        0.0,
        0.0,
        1.0,
        0.0,
        0.0,
        -3.258413698858844e-07,
        0.0,
        -0.9999999999999467,
        0.0,
        0.0,
        0.0,
        -0.08189734071493149,
        1.0
      ],
      "name": "Right Eye_3"
    },
    {
      "mesh": 3,
      "name": "Object_10"
    },
    {
      "children": [
        12
      ],
      "matrix": [
        -0.792808175086954,
        1.2916484255279577e-07,
        1.2916484255279577e-07,
        0.0,
        -1.4822735510389628e-08,
        1.2121144707349484e-15,
        -0.09098130464553712,
        0.0,
        -7.541379246078178e-08,
        -0.4628865718841491,
        6.166887958747162e-15,
        0.0,
        0.0,
        2.753671884536743,
        0.24853099882602692,
        1.0
      ],
      "name": "Mouth_6"
    },
    {
      "mesh": 4,
      "name": "Object_12"
    }
  ],
  "scene": 0,
  "scenes": [
    {
      "name": "Sketchfab_Scene",
      "nodes": [
        0
      ]
    }
  ]
}
