{
  "accessors": [
    {
      "bufferView": 2,
      "componentType": 5126,
      "count": 3934,
      "max": [
        6.894481658935547,
        4.372972011566162,
        4.335941791534424
      ],
      "min": [
        -5.154934883117676,
        -6.728916645050049,
        -3.721346139907837
      ],
      "type": "VEC3"
    },
    {
      "bufferView": 2,
      "byteOffset": 47208,
      "componentType": 5126,
      "count": 3934,
      "max": [
        0.999576210975647,
        0.9997392892837524,
        0.9999382495880127
      ],
      "min": [
        -0.9999470710754395,
        -0.9998379945755005,
        -0.9999688863754272
      ],
      "type": "VEC3"
    },
    {
      "bufferView": 0,
      "componentType": 5125,
      "count": 23592,
      "type": "SCALAR"
    },
    {
      "bufferView": 2,
      "byteOffset": 94416,
      "componentType": 5126,
      "count": 131,
      "max": [
        0.9971309900283813,
        0.9980266690254211,
        0.9992130994796753
      ],
      "min": [
        -0.9999001622200012,
        -1.0086220502853394,
        -0.9994621276855469
      ],
      "type": "VEC3"
    },
    {
      "bufferView": 2,
      "byteOffset": 95988,
      "componentType": 5126,
      "count": 131,
      "max": [
        0.9881277084350586,
        0.9882181882858276,
        0.9911692142486572
      ],
      "min": [
        -0.9937735795974731,
        -0.9960577487945557,
        -0.9903385043144226
      ],
      "type": "VEC3"
    },
    {
      "bufferView": 1,
      "componentType": 5126,
      "count": 131,
      "max": [
        1.0000001192092896,
        1.0
      ],
      "min": [
        0.0,
        0.0
      ],
      "type": "VEC2"
    },
    {
      "bufferView": 0,
      "byteOffset": 94368,
      "componentType": 5125,
      "count": 690,
      "type": "SCALAR"
    },
    {
      "bufferView": 3,
      "componentType": 5126,
      "count": 81,
      "max": [
        1.6666666269302368
      ],
      "min": [
        0.0
      ],
      "type": "SCALAR"
    },
    {
      "bufferView": 4,
      "componentType": 5126,
      "count": 81,
      "max": [
        -900.0,
        400.0,
        -1459.2369384765625
      ],
      "min": [
        -900.0,
        -300.0,
        -1459.2369384765625
      ],
      "type": "VEC3"
    }
  ],
  "animations": [
    {
      "channels": [
        {
          "sampler": 0,
          "target": {
            "node": 6,
            "path": "translation"
          }
        }
      ],
      "name": "Sphere.001|SphereAction.001",
      "samplers": [
        {
          "input": 7,
          "interpolation": "LINEAR",
          "output": 8
        }
      ]
    }
  ],
  "asset": {
    "extras": {
      "author": "curiositysphere (https://sketchfab.com/curiositysphere)",
      "license": "CC-BY-4.0 (http://creativecommons.org/licenses/by/4.0/)",
      "source": "https://sketchfab.com/3d-models/cloud-sun-lowpoly-432217560dbf461c83faa027d077de07",
      "title": "Cloud & Sun Lowpoly"
    },
    "generator": "Sketchfab-12.65.0",
    "version": "2.0"
  },
  "bufferViews": [
    {
      "buffer": 0,
      "byteLength": 97128,
      "name": "floatBufferViews",
      "target": 34963
    },
    {
      "buffer": 0,
      "byteLength": 1048,
      "byteOffset": 97128,
      "byteStride": 8,
      "name": "floatBufferViews",
      "target": 34962
    },
    {
      "buffer": 0,
      "byteLength": 97560,
      "byteOffset": 98176,
      "byteStride": 12,
      "name": "floatBufferViews",
      "target": 34962
    },
    {
      "buffer": 0,
      "byteLength": 324,
      "byteOffset": 195736,
      "name": "floatBufferViews"
    },
    {
      "buffer": 0,
      "byteLength": 972,
      "byteOffset": 196060,
      "byteStride": 12,
      "name": "floatBufferViews"
    }
  ],
  "buffers": [
    {
      "byteLength": 197032,
      "uri": "scene.bin"
    }
  ],
  "extensionsUsed": [
    "KHR_materials_unlit"
  ],
  "materials": [
    {
      "doubleSided": true,
      "extensions": {
        "KHR_materials_unlit": {}
      },
      "name": "Cloud.001__0",
      "pbrMetallicRoughness": {
        "metallicFactor": 0.0
      }
    },
    {
      "doubleSided": true,
      "extensions": {
        "KHR_materials_unlit": {}
      },
      "name": "material",
      "pbrMetallicRoughness": {
        "baseColorFactor": [
          1.0,
          0.554076,
          0.0,
          1.0
        ],
        "metallicFactor": 0.0
      }
    }
  ],
  "meshes": [
    {
      "name": "Cloud.001__0",
      "primitives": [
        {
          "attributes": {
            "NORMAL": 1,
            "POSITION": 0
          },
          "indices": 2,
          "material": 0,
          "mode": 4
        }
      ]
    },
    {
      "name": "Sphere.001_sun_0",
      "primitives": [
        {
          "attributes": {
            "NORMAL": 4,
            "POSITION": 3,
            "TEXCOORD_0": 5
          },
          "indices": 6,
          "material": 1,
          "mode": 4
        }
      ]
    }
  ],
  "nodes": [
    {
      "children": [
        1
      ],
      "matrix": [
        0.0012836053501814604,
        0.0,
        0.0,
        0.0,
        0.0,
        4.914371231183373e-19,
        -0.0012836053501814604,
        0.0,
        0.0,
        0.0012836053501814604,
        4.914371231183373e-19,
        0.0,
        -66.18617248535156,
        -5.374012107491687e-05,
        -0.1590588241815567,
        1.0
      ],
      "name": "Sketchfab_model"
    },
    {
      "children": [
        2
      ],
      "matrix": [
        1.0,
        0.0,
        0.0,
        0.0,
        0.0,
        0.0,
        1.0,
        0.0,
        0.0,
        -1.0,
        0.0,
        0.0,
        0.0,
        0.0,
        0.0,
        1.0
      ],
      "name": "13a31b296d6a42a59d17bc0fc5f904dd.fbx"
    },
    {
      "children": [
        3
      ],
      "name": "Object_2"
    },
    {
      "children": [
        4,
        6
      ],
      "name": "RootNode"
    },
    {
      "children": [
        5
      ],
      "name": "Cloud.001",
      "rotation": [
        -0.5545071959495544,
        0.4387730658054352,
        0.43877315521240234,
        0.5545070767402649
      ],
      "scale": [
        100.00000762939453,
        100.00000762939453,
        100.0
      ],
      "translation": [
        -124.10353088378906,
        49.943458557128906,
        -1076.5068359375
      ]
    },
    {
      "mesh": 0,
      "name": "Cloud.001__0"
    },
    {
      "children": [
        7
      ],
      "name": "Sphere.001",
      "rotation": [
        -0.7071068286895752,
        0.0,
        0.0,
        0.7071067094802856
      ],
      "scale": [
        -299.5356750488281,
        -299.5356750488281,
        -299.5356750488281
      ],
      "translation": [
        -900.0,
        350.0,
        -1459.2369384765625
      ]
    },
    {
      "mesh": 1,
      "name": "Sphere.001_sun_0"
    }
  ],
  "scene": 0,
  "scenes": [
    {
      "name": "Sketchfab_Scene",
      "nodes": [
        0
      ]
    }
  ]
}
