{
  "accessors": [
    {
      "bufferView": 2,
      "componentType": 5126,
      "count": 5331,
      "max": [
        0.025185000151395798,
        0.014170999638736248,
        0.10817699879407883
      ],
      "min": [
        -0.03048199974000454,
        -0.0035000001080334187,
        0.0007830000249668956
      ],
      "type": "VEC3"
    },
    {
      "bufferView": 2,
      "byteOffset": 63972,
      "componentType": 5126,
      "count": 5331,
      "max": [
        0.9983203411102295,
        0.9999945163726807,
        0.982302188873291
      ],
      "min": [
        -0.9983475208282471,
        -0.9999920129776001,
        -0.9156061410903931
      ],
      "type": "VEC3"
    },
    {
      "bufferView": 3,
      "componentType": 5126,
      "count": 5331,
      "max": [
        0.9983234405517578,
        0.9996915459632874,
        0.9999141097068787,
        1.0
      ],
      "min": [
        -0.9998239278793335,
        -0.9950898885726929,
        -0.9999977946281433,
        -1.0
      ],
      "type": "VEC4"
    },
    {
      "bufferView": 1,
      "componentType": 5126,
      "count": 5331,
      "max": [
        0.999921977519989,
        0.6944810152053833
      ],
      "min": [
        0.0001610000035725534,
        0.0002789999998640269
      ],
      "type": "VEC2"
    },
    {
      "bufferView": 0,
      "componentType": 5125,
      "count": 29997,
      "type": "SCALAR"
    }
  ],
  "asset": {
    "extras": {
      "author": "Opus Poly (https://sketchfab.com/OpusPoly)",
      "license": "CC-BY-4.0 (http://creativecommons.org/licenses/by/4.0/)",
      "source": "https://sketchfab.com/3d-models/cupaniopsis-anacardioides-leaf-75debbf3bfe14c259bd0db21581924de",
      "title": "Cupaniopsis Anacardioides Leaf"
    },
    "generator": "Sketchfab-12.67.0",
    "version": "2.0"
  },
  "bufferViews": [
    {
      "buffer": 0,
      "byteLength": 119988,
      "name": "floatBufferViews",
      "target": 34963
    },
    {
      "buffer": 0,
      "byteLength": 42648,
      "byteOffset": 119988,
      "byteStride": 8,
      "name": "floatBufferViews",
      "target": 34962
    },
    {
      "buffer": 0,
      "byteLength": 127944,
      "byteOffset": 162636,
      "byteStride": 12,
      "name": "floatBufferViews",
      "target": 34962
    },
    {
      "buffer": 0,
      "byteLength": 85296,
      "byteOffset": 290580,
      "byteStride": 16,
      "name": "floatBufferViews",
      "target": 34962
    }
  ],
  "buffers": [
    {
      "byteLength": 375876,
      "uri": "scene.bin"
    }
  ],
  "images": [
    {
      "uri": "textures/leaf_baseColor.jpeg"
    },
    {
      "uri": "textures/leaf_metallicRoughness.png"
    },
    {
      "uri": "textures/leaf_normal.jpeg"
    }
  ],
  "materials": [
    {
      "doubleSided": true,
      "name": "leaf",
      "normalTexture": {
        "index": 2,
        "scale": 0.37234303154877657
      },
      "occlusionTexture": {
        "index": 1
      },
      "pbrMetallicRoughness": {
        "baseColorTexture": {
          "index": 0
        },
        "metallicFactor": 0.0,
        "metallicRoughnessTexture": {
          "index": 1
        }
      }
    }
  ],
  "meshes": [
    {
      "name": "Object_0",
      "primitives": [
        {
          "attributes": {
            "NORMAL": 1,
            "POSITION": 0,
            "TANGENT": 2,
            "TEXCOORD_0": 3
          },
          "indices": 4,
          "material": 0,
          "mode": 4
        }
      ]
    }
  ],
  "nodes": [
    {
      "children": [
        1
      ],
      "matrix": [
        1.0,
        0.0,
        0.0,
        0.0,
        0.0,
        2.220446049250313e-16,
        -1.0,
        0.0,
        0.0,
        1.0,
        2.220446049250313e-16,
        0.0,
        0.0,
        0.0,
        0.0,
        1.0
      ],
      "name": "Sketchfab_model"
    },
    {
      "children": [
        2
      ],
      "name": "Leaf_Scaled.obj.cleaner.materialmerger.gles"
    },
    {
      "mesh": 0,
      "name": "Object_2"
    }
  ],
  "samplers": [
    {
      "magFilter": 9729,
      "minFilter": 9987,
      "wrapS": 10497,
      "wrapT": 10497
    }
  ],
  "scene": 0,
  "scenes": [
    {
      "name": "Sketchfab_Scene",
      "nodes": [
        0
      ]
    }
  ],
  "textures": [
    {
      "sampler": 0,
      "source": 0
    },
    {
      "sampler": 0,
      "source": 1
    },
    {
      "sampler": 0,
      "source": 2
    }
  ]
}
